<svg width="32" height="32" viewBox="0 0 32 32" fill="none" xmlns="http://www.w3.org/2000/svg">
<rect width="32" height="32" rx="16" fill="#01034C"/>
<path fill-rule="evenodd" clip-rule="evenodd" d="M9.90948 23.4533C9.7685 23.2501 9.63628 23.0401 9.51339 22.8237C8.62163 21.2532 8.26984 19.4335 8.51198 17.6438C8.69203 16.3131 9.19306 15.0536 9.96317 13.9702C10.2288 13.5966 10.5264 13.2438 10.8539 12.9164L11.8117 13.8742C10.7444 14.9416 10.0568 16.3297 9.8544 17.8255C9.65201 19.3213 9.94605 20.8422 10.6914 22.1548C11.4367 23.4673 12.5921 24.4991 13.9804 25.0917C14.6728 25.3873 15.404 25.5654 16.1446 25.6239C17.6696 25.6015 19.1087 25.2244 20.383 24.5714C21.026 24.1632 21.6011 23.6487 22.0818 23.045C23.022 21.8641 23.5488 20.4074 23.5812 18.8983C23.6137 17.3892 23.1501 15.9112 22.2615 14.691C21.3732 13.471 20.1092 12.5762 18.6634 12.1438L18.6624 12.1435L19.0504 10.8456C19.4941 10.9783 19.9235 11.1473 20.3347 11.35C21.527 11.9376 22.5661 12.808 23.3566 13.8935C24.4197 15.3534 24.9744 17.1219 24.9356 18.9274C24.9299 19.1927 24.9114 19.4566 24.8805 19.7183C25.36 18.5743 25.625 17.3181 25.625 16C25.625 10.6843 21.3157 6.375 16 6.375C10.6843 6.375 6.375 10.6843 6.375 16C6.375 19.0049 7.75203 21.6882 9.90948 23.4533ZM16.3702 26.9939C16.2473 26.9979 16.1239 27 16 27C9.92487 27 5 22.0751 5 16C5 9.92487 9.92487 5 16 5C22.0751 5 27 9.92487 27 16C27 20.347 24.4784 24.1051 20.8182 25.8914C20.1621 26.2709 19.4527 26.5606 18.7083 26.7487C17.9396 26.9429 17.1522 27.024 16.3702 26.9939Z" fill="white"/>
</svg>
