<svg width="184" height="46" viewBox="0 0 184 46" fill="none" xmlns="http://www.w3.org/2000/svg">
<path fill-rule="evenodd" clip-rule="evenodd" d="M7.6248 33.6822C7.97206 34.2938 8.36624 34.8732 8.80234 35.4161C4.92244 32.596 2.39994 28.0217 2.39994 22.8583C2.39994 14.2901 9.34586 7.34414 17.9141 7.34414C26.4823 7.34414 33.4282 14.2901 33.4282 22.8583C33.4282 25.298 32.8651 27.6061 31.8617 29.6598C31.9961 28.9516 32.0724 28.23 32.088 27.5019C32.1497 24.6379 31.2698 21.8327 29.5834 19.5169C28.2801 17.7271 26.5506 16.306 24.565 15.374C23.9816 15.1002 23.3761 14.8685 22.7527 14.6822L22.6452 15.0418L22.1987 16.5356L22.0912 16.8952C24.3515 17.5709 26.3276 18.9696 27.7163 20.8766C29.105 22.7836 29.8296 25.0937 29.7788 27.4522C29.7281 29.8108 28.9048 32.0875 27.4354 33.9331C25.9659 35.7786 23.9315 37.091 21.6443 37.6688C19.357 38.2467 16.9434 38.058 14.7737 37.1319C12.604 36.2057 10.7982 34.5932 9.63334 32.5417C8.46847 30.4903 8.00893 28.1133 8.32523 25.7755C8.64154 23.4377 9.71622 21.2683 11.3843 19.6002L11.119 19.3348L10.0165 18.2323L9.7511 17.9669C9.29108 18.4269 8.86822 18.9184 8.48488 19.4364C7.18021 21.1996 6.3332 23.2717 6.03633 25.4658C5.65223 28.3046 6.21027 31.1911 7.6248 33.6822ZM17.9141 40.3069C18.1105 40.3069 18.3062 40.3036 18.5011 40.2972C19.7417 40.345 20.9906 40.2163 22.21 39.9082C23.3909 39.6099 24.5164 39.1503 25.5572 38.5483C31.363 35.7148 35.3627 29.7536 35.3627 22.8583C35.3627 13.2217 27.5507 5.40968 17.9141 5.40968C8.27749 5.40968 0.465485 13.2217 0.465485 22.8583C0.465485 32.4949 8.27749 40.3069 17.9141 40.3069ZM71.95 24.1815C73.1447 24.8771 74.5056 25.2249 76.033 25.2249C77.0764 25.2249 78.0594 25.0359 78.9818 24.6579C79.9042 24.2798 80.7133 23.7505 81.4089 23.07C82.1045 22.3744 82.6414 21.5805 83.0194 20.6883L80.615 19.7129C80.3428 20.3329 79.9723 20.8773 79.5035 21.3461C79.0498 21.8149 78.5281 22.1854 77.9384 22.4576C77.3637 22.7147 76.7437 22.8432 76.0783 22.8432C75.0652 22.8432 74.1578 22.5937 73.3564 22.0947C72.57 21.5956 71.95 20.9076 71.4963 20.0305C71.0578 19.1534 70.8385 18.1478 70.8385 17.0136C70.8385 15.8795 71.0578 14.8814 71.4963 14.0194C71.95 13.1424 72.5625 12.4543 73.3337 11.9553C74.12 11.4562 75.0122 11.2067 76.0103 11.2067C76.6606 11.2067 77.2806 11.3277 77.8703 11.5697C78.4601 11.8116 78.9818 12.1594 79.4355 12.6131C79.9042 13.0516 80.2747 13.5582 80.5469 14.1329L82.9514 13.1575C82.5733 12.2955 82.0289 11.5394 81.3182 10.8892C80.6225 10.2389 79.8211 9.73232 78.9138 9.36939C78.0064 8.99133 77.0386 8.80231 76.0103 8.80231C74.483 8.80231 73.1295 9.15768 71.95 9.86842C70.7705 10.564 69.8405 11.5318 69.16 12.7719C68.4946 13.9968 68.1619 15.4107 68.1619 17.0136C68.1619 18.6166 68.4946 20.038 69.16 21.2781C69.8405 22.5029 70.7705 23.4708 71.95 24.1815ZM46.0887 24.9527V11.4789H41.2118V9.0745H53.5968V11.4789H48.72V24.9527H46.0887ZM55.7804 24.9527V9.0745H65.5569V11.4789H58.4117V15.698H64.7176V18.057H58.4117V22.5483H65.6249V24.9527H55.7804ZM84.9397 19.3046V17.1044H91.7446V19.3046H84.9397ZM97.668 24.1815C98.8626 24.8771 100.224 25.2249 101.751 25.2249C102.794 25.2249 103.777 25.0359 104.7 24.6579C105.622 24.2798 106.431 23.7505 107.127 23.07C107.822 22.3744 108.359 21.5805 108.737 20.6883L106.333 19.7129C106.061 20.3329 105.69 20.8773 105.221 21.3461C104.768 21.8149 104.246 22.1854 103.656 22.4576C103.082 22.7147 102.462 22.8432 101.796 22.8432C100.783 22.8432 99.8758 22.5937 99.0743 22.0947C98.288 21.5956 97.668 20.9076 97.2143 20.0305C96.7758 19.1534 96.5565 18.1478 96.5565 17.0136C96.5565 15.8795 96.7758 14.8814 97.2143 14.0194C97.668 13.1424 98.2804 12.4543 99.0516 11.9553C99.838 11.4562 100.73 11.2067 101.728 11.2067C102.378 11.2067 102.998 11.3277 103.588 11.5697C104.178 11.8116 104.7 12.1594 105.153 12.6131C105.622 13.0516 105.993 13.5582 106.265 14.1329L108.669 13.1575C108.291 12.2955 107.747 11.5394 107.036 10.8892C106.34 10.2389 105.539 9.73232 104.632 9.36939C103.724 8.99133 102.757 8.80231 101.728 8.80231C100.201 8.80231 98.8475 9.15768 97.668 9.86842C96.4884 10.564 95.5584 11.5318 94.8779 12.7719C94.2125 13.9968 93.8799 15.4107 93.8799 17.0136C93.8799 18.6166 94.2125 20.038 94.8779 21.2781C95.5584 22.5029 96.4884 23.4708 97.668 24.1815ZM121.886 24.9527V18.0117H113.901V24.9527H111.27V9.0745H113.901V15.6073H121.886V9.0745H124.517V24.9527H121.886ZM137.762 21.0512L139.284 24.9527H142.074L135.723 9.0745H135.586H133.091H132.932L126.604 24.9527H129.394L130.916 21.0512H137.762ZM136.851 18.7149L134.339 12.2734L131.827 18.7149H136.851ZM144.143 9.0745H149.746C150.834 9.0745 151.795 9.28621 152.626 9.70963C153.458 10.1331 154.108 10.7228 154.577 11.4789C155.046 12.2199 155.28 13.0819 155.28 14.0648C155.28 15.0477 155.031 15.9173 154.532 16.6734C154.048 17.4295 153.375 18.0268 152.513 18.4653C152.399 18.5214 152.283 18.5737 152.165 18.6223L155.916 24.9527H152.944L149.565 19.1005H146.774V24.9527H144.143V9.0745ZM146.774 16.6734H149.859C150.373 16.6734 150.827 16.56 151.22 16.3331C151.628 16.1063 151.954 15.7963 152.195 15.4031C152.453 15.0099 152.581 14.5638 152.581 14.0648C152.581 13.3087 152.309 12.6887 151.764 12.2048C151.22 11.7209 150.517 11.4789 149.655 11.4789H146.774V16.6734ZM161.675 11.4789V24.9527H164.307V11.4789H169.184V9.0745H156.799V11.4789H161.675ZM176.584 25.2249C175.753 25.2249 174.989 25.1266 174.293 24.93C173.613 24.7335 173.008 24.4613 172.479 24.1135C171.965 23.7656 171.534 23.38 171.186 22.9566C170.853 22.5181 170.619 22.0644 170.483 21.5956L173.068 20.8017C173.265 21.3612 173.651 21.8527 174.225 22.2761C174.8 22.6995 175.511 22.9188 176.357 22.9339C177.34 22.9339 178.119 22.7298 178.694 22.3215C179.269 21.9132 179.556 21.3764 179.556 20.711C179.556 20.1061 179.314 19.6146 178.83 19.2366C178.346 18.8434 177.696 18.541 176.879 18.3292L174.928 17.8302C174.187 17.6336 173.515 17.3463 172.91 16.9683C172.32 16.5902 171.851 16.1139 171.503 15.5392C171.171 14.9646 171.004 14.2841 171.004 13.4977C171.004 12.0158 171.488 10.8665 172.456 10.0499C173.424 9.21817 174.807 8.80231 176.607 8.80231C177.62 8.80231 178.505 8.96109 179.261 9.27865C180.032 9.5811 180.667 10.0045 181.166 10.5489C181.665 11.0782 182.036 11.6831 182.278 12.3636L179.737 13.1802C179.51 12.5753 179.117 12.0762 178.558 11.6831C177.998 11.2899 177.303 11.0933 176.471 11.0933C175.609 11.0933 174.928 11.2975 174.429 11.7058C173.946 12.1141 173.704 12.6811 173.704 13.407C173.704 13.9968 173.893 14.458 174.271 14.7907C174.664 15.1082 175.193 15.3502 175.858 15.5165L177.809 15.9929C179.231 16.3407 180.335 16.938 181.121 17.7848C181.907 18.6317 182.3 19.5693 182.3 20.5976C182.3 21.5049 182.081 22.3064 181.643 23.002C181.204 23.6976 180.554 24.242 179.692 24.6352C178.845 25.0283 177.809 25.2249 176.584 25.2249ZM94.4591 39.6134V31.6378H95.7352V39.6134H94.4591ZM95.1131 29.7874C94.9005 29.7874 94.7143 29.7077 94.5548 29.5481C94.3953 29.3886 94.3156 29.2025 94.3156 28.9898C94.3156 28.7665 94.3953 28.5804 94.5548 28.4315C94.7143 28.272 94.9005 28.1923 95.1131 28.1923C95.3364 28.1923 95.5226 28.272 95.6714 28.4315C95.8309 28.5804 95.9107 28.7665 95.9107 28.9898C95.9107 29.2025 95.8309 29.3886 95.6714 29.5481C95.5226 29.7077 95.3364 29.7874 95.1131 29.7874ZM102.569 39.8048C101.793 39.8048 101.102 39.6294 100.495 39.2784C99.8999 38.9169 99.432 38.4224 99.0917 37.795C98.7515 37.1676 98.5813 36.4444 98.5813 35.6256C98.5813 34.8068 98.7461 34.0836 99.0758 33.4562C99.4161 32.8288 99.884 32.3396 100.48 31.9887C101.086 31.6271 101.772 31.4463 102.537 31.4463C103.324 31.4463 104.015 31.6271 104.611 31.9887C105.217 32.3396 105.685 32.8288 106.015 33.4562C106.355 34.0836 106.525 34.8068 106.525 35.6256C106.525 36.4444 106.355 37.1676 106.015 37.795C105.685 38.4224 105.222 38.9169 104.627 39.2784C104.031 39.6294 103.345 39.8048 102.569 39.8048ZM102.569 38.6244C103.101 38.6244 103.563 38.4968 103.957 38.2416C104.35 37.9864 104.659 37.6355 104.882 37.1888C105.116 36.7422 105.233 36.2211 105.233 35.6256C105.233 35.0301 105.116 34.509 104.882 34.0624C104.659 33.6157 104.345 33.2648 103.941 33.0096C103.537 32.7544 103.069 32.6267 102.537 32.6267C102.016 32.6267 101.554 32.7544 101.149 33.0096C100.756 33.2648 100.442 33.6157 100.208 34.0624C99.985 34.509 99.8734 35.0301 99.8734 35.6256C99.8734 36.2105 99.985 36.7316 100.208 37.1888C100.442 37.6355 100.761 37.9864 101.165 38.2416C101.58 38.4968 102.048 38.6244 102.569 38.6244ZM110.45 31.6378H109.254V39.6134H110.53V35.482C110.53 34.5781 110.722 33.8816 111.104 33.3924C111.498 32.8926 112.045 32.6427 112.747 32.6427C113.151 32.6427 113.513 32.7225 113.832 32.882C114.151 33.0308 114.401 33.3127 114.582 33.7274C114.763 34.1421 114.853 34.743 114.853 35.5299V39.6134H116.129V35.5299V35.1471C116.14 34.2644 116.012 33.5519 115.746 33.0096C115.491 32.4672 115.129 32.0738 114.661 31.8292C114.204 31.574 113.662 31.4463 113.034 31.4463C112.375 31.4463 111.812 31.6059 111.344 31.9249C111.011 32.1518 110.735 32.4512 110.515 32.8233L110.45 31.6378ZM122.631 39.8048C121.855 39.8048 121.164 39.6294 120.557 39.2784C119.962 38.9169 119.494 38.4224 119.154 37.795C118.813 37.1676 118.643 36.4444 118.643 35.6256C118.643 34.8068 118.808 34.0836 119.138 33.4562C119.478 32.8288 119.946 32.3396 120.541 31.9887C121.148 31.6271 121.833 31.4463 122.599 31.4463C123.386 31.4463 124.077 31.6271 124.673 31.9887C125.279 32.3396 125.747 32.8288 126.077 33.4562C126.417 34.0836 126.587 34.8068 126.587 35.6256C126.587 36.4444 126.417 37.1676 126.077 37.795C125.747 38.4224 125.284 38.9169 124.689 39.2784C124.093 39.6294 123.407 39.8048 122.631 39.8048ZM122.631 38.6244C123.163 38.6244 123.625 38.4968 124.019 38.2416C124.412 37.9864 124.721 37.6355 124.944 37.1888C125.178 36.7422 125.295 36.2211 125.295 35.6256C125.295 35.0301 125.178 34.509 124.944 34.0624C124.721 33.6157 124.407 33.2648 124.003 33.0096C123.599 32.7544 123.131 32.6267 122.599 32.6267C122.078 32.6267 121.615 32.7544 121.211 33.0096C120.818 33.2648 120.504 33.6157 120.27 34.0624C120.047 34.509 119.935 35.0301 119.935 35.6256C119.935 36.2105 120.047 36.7316 120.27 37.1888C120.504 37.6355 120.823 37.9864 121.227 38.2416C121.642 38.4968 122.11 38.6244 122.631 38.6244ZM130.576 39.5496C131.012 39.7198 131.522 39.8048 132.107 39.8048C132.671 39.8048 133.171 39.7144 133.607 39.5337C134.043 39.3423 134.388 39.0711 134.644 38.7201C134.899 38.3692 135.026 37.9545 135.026 37.4759C135.026 37.1144 134.936 36.7741 134.755 36.4551C134.575 36.136 134.309 35.8542 133.958 35.6096C133.607 35.3544 133.171 35.163 132.65 35.0354L131.852 34.828C131.406 34.711 131.065 34.5622 130.831 34.3814C130.608 34.19 130.496 33.9879 130.496 33.7752C130.496 33.403 130.635 33.1159 130.911 32.9139C131.188 32.7012 131.57 32.5948 132.06 32.5948C132.517 32.5948 132.905 32.6746 133.224 32.8341C133.543 32.9936 133.772 33.2542 133.91 33.6157L135.026 33.1212C134.899 32.7809 134.697 32.4885 134.42 32.2439C134.144 31.9887 133.814 31.792 133.431 31.6537C133.049 31.5155 132.623 31.4463 132.155 31.4463C131.177 31.4463 130.438 31.659 129.938 32.0844C129.449 32.4991 129.204 33.084 129.204 33.839C129.204 34.3282 129.406 34.7695 129.81 35.163C130.214 35.5458 130.778 35.833 131.501 36.0244L132.267 36.2317C132.756 36.3594 133.123 36.5242 133.368 36.7262C133.623 36.9283 133.75 37.1941 133.75 37.5238C133.75 37.8854 133.58 38.1672 133.24 38.3692C132.9 38.5606 132.48 38.6563 131.98 38.6563C131.544 38.6563 131.145 38.5447 130.783 38.3214C130.422 38.098 130.151 37.8056 129.97 37.444L128.853 37.9066C128.981 38.2469 129.188 38.5606 129.475 38.8478C129.773 39.1349 130.14 39.3688 130.576 39.5496ZM137.783 42.8037V31.6378H138.98L139.053 32.9879C139.301 32.5727 139.612 32.2343 139.984 31.9727C140.495 31.6218 141.085 31.4463 141.755 31.4463C142.468 31.4463 143.095 31.6218 143.637 31.9727C144.18 32.3237 144.6 32.8128 144.897 33.4403C145.206 34.0677 145.36 34.7961 145.36 35.6256C145.36 36.4444 145.206 37.1729 144.897 37.8109C144.6 38.4383 144.18 38.9275 143.637 39.2784C143.095 39.6294 142.468 39.8048 141.755 39.8048C141.085 39.8048 140.495 39.6294 139.984 39.2784C139.615 39.0191 139.307 38.6842 139.059 38.2739V42.8037H137.783ZM140.224 38.2576C139.862 38.0023 139.575 37.6461 139.362 37.1888C139.16 36.7316 139.059 36.2105 139.059 35.6256C139.059 35.0407 139.16 34.5196 139.362 34.0624C139.575 33.6051 139.862 33.2488 140.224 32.9936C140.596 32.7384 141.016 32.6108 141.484 32.6108C141.984 32.6108 142.43 32.7384 142.824 32.9936C143.217 33.2488 143.52 33.6051 143.733 34.0624C143.956 34.5196 144.068 35.0407 144.068 35.6256C144.068 36.2105 143.951 36.7316 143.717 37.1888C143.494 37.6461 143.185 38.0023 142.792 38.2576C142.409 38.5128 141.968 38.6404 141.468 38.6404C141 38.6404 140.585 38.5128 140.224 38.2576ZM148.085 28.4475V39.6134H149.361V35.482C149.361 34.5781 149.552 33.8816 149.935 33.3924C150.329 32.8926 150.876 32.6427 151.578 32.6427C151.982 32.6427 152.344 32.7225 152.663 32.882C152.982 33.0308 153.232 33.3127 153.413 33.7274C153.604 34.1421 153.7 34.743 153.7 35.5299V39.6134H154.976V35.5299V35.1471C154.986 34.2644 154.859 33.5519 154.593 33.0096C154.338 32.4672 153.976 32.0738 153.508 31.8292C153.04 31.574 152.498 31.4463 151.881 31.4463C151.222 31.4463 150.658 31.6059 150.19 31.9249C149.861 32.1493 149.585 32.4447 149.361 32.8111V28.4475H148.085ZM161.43 39.8048C160.654 39.8048 159.968 39.6294 159.372 39.2784C158.777 38.9169 158.309 38.4224 157.969 37.795C157.639 37.1676 157.474 36.4444 157.474 35.6256C157.474 34.8068 157.639 34.0836 157.969 33.4562C158.309 32.8288 158.771 32.3396 159.356 31.9887C159.952 31.6271 160.632 31.4463 161.398 31.4463C162.143 31.4463 162.786 31.6324 163.328 32.0046C163.871 32.3662 164.291 32.8766 164.588 33.536C164.886 34.1953 165.035 34.9716 165.035 35.8649H158.773C158.801 36.3883 158.91 36.8455 159.101 37.2367C159.335 37.6939 159.659 38.0449 160.074 38.2895C160.489 38.5234 160.962 38.6404 161.494 38.6404C162.057 38.6404 162.531 38.5075 162.913 38.2416C163.307 37.9758 163.61 37.6248 163.823 37.1888L164.923 37.7471C164.721 38.1619 164.45 38.5234 164.11 38.8318C163.78 39.1402 163.387 39.3795 162.929 39.5496C162.483 39.7198 161.983 39.8048 161.43 39.8048ZM163.669 34.7961H158.856C158.889 34.394 159.003 34.0431 159.197 33.7433C159.441 33.3711 159.755 33.084 160.138 32.882C160.531 32.6799 160.946 32.5789 161.382 32.5789C161.829 32.5789 162.222 32.6799 162.563 32.882C162.903 33.084 163.174 33.3711 163.376 33.7433C163.541 34.048 163.639 34.3989 163.669 34.7961ZM168.878 35.2268V39.6134H167.602V31.6378H168.878V33.0752C169.194 32.5966 169.588 32.2397 170.058 32.0046C170.579 31.7388 171.127 31.6059 171.701 31.6059V32.8022C171.233 32.8022 170.781 32.882 170.345 33.0415C169.92 33.1904 169.569 33.4403 169.292 33.7912C169.016 34.1421 168.878 34.6207 168.878 35.2268ZM177.442 39.8048C176.665 39.8048 175.98 39.6294 175.384 39.2784C174.789 38.9169 174.321 38.4224 173.98 37.795C173.651 37.1676 173.486 36.4444 173.486 35.6256C173.486 34.8068 173.651 34.0836 173.98 33.4562C174.321 32.8288 174.783 32.3396 175.368 31.9887C175.964 31.6271 176.644 31.4463 177.41 31.4463C178.154 31.4463 178.798 31.6324 179.34 32.0046C179.882 32.3662 180.302 32.8766 180.6 33.536C180.898 34.1953 181.047 34.9716 181.047 35.8649H174.785C174.813 36.3883 174.922 36.8455 175.113 37.2367C175.347 37.6939 175.671 38.0449 176.086 38.2895C176.501 38.5234 176.974 38.6404 177.506 38.6404C178.069 38.6404 178.542 38.5075 178.925 38.2416C179.319 37.9758 179.622 37.6248 179.834 37.1888L180.935 37.7471C180.733 38.1619 180.462 38.5234 180.122 38.8318C179.792 39.1402 179.398 39.3795 178.941 39.5496C178.495 39.7198 177.995 39.8048 177.442 39.8048ZM179.681 34.7961H174.868C174.901 34.394 175.015 34.0431 175.209 33.7433C175.453 33.3711 175.767 33.084 176.15 32.882C176.543 32.6799 176.958 32.5789 177.394 32.5789C177.841 32.5789 178.234 32.6799 178.574 32.882C178.915 33.084 179.186 33.3711 179.388 33.7433C179.553 34.048 179.651 34.3989 179.681 34.7961Z" fill="white"/>
</svg>
